<svg xmlns="http://www.w3.org/2000/svg" version="1.0" width="200.000000pt" height="200.000000pt" viewBox="0 0 200.000000 200.000000" preserveAspectRatio="xMidYMid meet">

<g transform="translate(0.000000,200.000000) scale(0.100000,-0.100000)" fill="#0033ff" stroke="none">
<path d="M504 1104 c-181 -317 -329 -579 -329 -582 0 -5 332 -182 342 -182 1 0 108 187 239 415 130 228 239 415 243 415 3 0 111 -184 239 -409 129 -225 236 -412 239 -415 8 -8 343 164 343 176 0 6 -147 269 -327 584 l-328 574 -166 0 -167 0 -328 -576z" fill="#0033ff"/>
</g>
</svg>
